<svg width="1365" height="562" viewBox="0 0 1365 562" fill="none" xmlns="http://www.w3.org/2000/svg">
<g filter="url(#filter0_d_44_6)">
<path d="M58 376C-27.2 410.8 8.16664 173.167 36.5 50H58C79.6666 56.5 136.5 85.1 190.5 147.5C258 225.5 566.5 143.5 560 87C553.5 30.5 892.5 -32.5 925 21.5C957.5 75.5 1216 76 1299 87C1365.4 95.8 1364.33 251.333 1355.5 328C1388.5 367 1146.5 515 1144.5 469C1142.5 423 820.5 376 792.5 432.5C764.5 489 655.5 517 549 547.5C463.8 571.9 394.833 505.333 371 469C302.167 423.5 143.2 341.2 58 376Z" fill="#83CACE" fill-opacity="0.75" shape-rendering="crispEdges"/>
<path d="M58 376C-27.2 410.8 8.16664 173.167 36.5 50H58C79.6666 56.5 136.5 85.1 190.5 147.5C258 225.5 566.5 143.5 560 87C553.5 30.5 892.5 -32.5 925 21.5C957.5 75.5 1216 76 1299 87C1365.4 95.8 1364.33 251.333 1355.5 328C1388.5 367 1146.5 515 1144.5 469C1142.5 423 820.5 376 792.5 432.5C764.5 489 655.5 517 549 547.5C463.8 571.9 394.833 505.333 371 469C302.167 423.5 143.2 341.2 58 376Z" stroke="#AF4B4B" shape-rendering="crispEdges"/>
</g>
<defs>
<filter id="filter0_d_44_6" x="0.0195923" y="0.416771" width="1364.26" height="560.833" filterUnits="userSpaceOnUse" color-interpolation-filters="sRGB">
<feFlood flood-opacity="0" result="BackgroundImageFix"/>
<feColorMatrix in="SourceAlpha" type="matrix" values="0 0 0 0 0 0 0 0 0 0 0 0 0 0 0 0 0 0 127 0" result="hardAlpha"/>
<feOffset dy="4"/>
<feGaussianBlur stdDeviation="2"/>
<feComposite in2="hardAlpha" operator="out"/>
<feColorMatrix type="matrix" values="0 0 0 0 0 0 0 0 0 0 0 0 0 0 0 0 0 0 0.25 0"/>
<feBlend mode="normal" in2="BackgroundImageFix" result="effect1_dropShadow_44_6"/>
<feBlend mode="normal" in="SourceGraphic" in2="effect1_dropShadow_44_6" result="shape"/>
</filter>
</defs>
</svg>
